<svg width="14" height="10" viewBox="0 0 14 10" fill="none" xmlns="http://www.w3.org/2000/svg">
<path d="M0 5C0.60854 2.15542 3.51111 0 7.00002 0C10.4889 0 13.3915 2.15542 14 5C13.3915 7.84456 10.4889 10 7.00002 10C3.51111 10 0.60854 7.84456 0 5ZM7.00002 7.77778C8.78673 7.77778 10.2352 6.53411 10.2352 5C10.2352 3.46588 8.78673 2.22222 7.00002 2.22222C5.21327 2.22222 3.76483 3.46588 3.76483 5C3.76483 6.53411 5.21327 7.77778 7.00002 7.77778ZM7.00002 6.66667C5.92795 6.66667 5.0589 5.9205 5.0589 5C5.0589 4.0795 5.92795 3.33333 7.00002 3.33333C8.07202 3.33333 8.94112 4.0795 8.94112 5C8.94112 5.9205 8.07202 6.66667 7.00002 6.66667Z" fill="#585B62"/>
</svg>
